<svg xmlns="http://www.w3.org/2000/svg" xmlns:xlink="http://www.w3.org/1999/xlink" width="400" height="400" viewBox="0 0 400 400">
<rect data-name="background" width="100%" height="100%" fill="#131313"/><g data-name="watermark" class="watermark-logodesign" stroke="#ffffff" transform="translate(10, 320) scale(1.5) rotate(-45)" style="opacity:0.040000010281801224;"><path fill="#000000" d="M22.92,19.2q3.04,1.68,4.8,4.7t1.76,6.78t-1.76,6.78t-4.8,4.7t-6.68,1.68t-6.7-1.68t-4.84-4.7t-1.78-6.78t1.78-6.78t4.84-4.7t6.7-1.68t6.68,1.68z M11.14,21.74q-2.26,1.3-3.54,3.62t-1.28,5.32t1.28,5.32t3.54,3.6t5.1,1.28t5.08-1.28t3.52-3.6t1.28-5.32t-1.28-5.32t-3.54-3.62t-5.06-1.3q-2.84,0-5.1,1.3z M21.4,24.76l-1.8,2.32q-0.72-0.56-1.4-0.78t-1.48-0.22q-1.44,0-2.3,1.1t-0.86,3.46q0,2.32,0.82,3.44t2.26,1.12q0.96,0,1.74-0.3t1.54-0.9l1.64,2.44q-2.24,2.04-5.2,2.04q-3.2,0-5.08-2.04t-1.88-5.8q0-2.4,0.9-4.16t2.48-2.7t3.54-0.94q2.92,0,5.08,1.92z M41.2,20.32l0,22.96l10.96,0l-0.64,4.72l-16.2,0l0-27.68l5.88,0z M71.92,29.14q2.68,2.98,2.68,8.26q0,3.36-1.22,5.9t-3.52,3.94t-5.42,1.4q-4.76,0-7.46-2.98t-2.7-8.26q0-3.36,1.22-5.9t3.52-3.94t5.46-1.4q4.76,0,7.44,2.98z M61.26,32.1q-1.06,1.7-1.06,5.3t1.06,5.3t3.18,1.7t3.18-1.7t1.06-5.3t-1.04-5.3t-3.16-1.7q-2.16,0-3.22,1.7z M97.88,27.96q-2.08,0.8-6.12,0.8q2,0.88,2.96,2.18t0.96,3.26q0,2.04-1.06,3.66t-3.04,2.54t-4.62,0.92q-1.4,0-2.48-0.28q-0.8,0.52-0.8,1.4q0,0.64,0.5,1.02t1.94,0.38l3.24,0q2.36,0,4.14,0.78t2.76,2.16t0.98,3.14q0,3.24-2.78,5.06t-8.02,1.82q-3.76,0-5.94-0.78t-3.06-2.26t-0.88-3.72l5.08,0q0,1.04,0.4,1.66t1.46,0.92t3.06,0.3q2.76,0,3.86-0.68t1.1-1.92q0-1.12-0.84-1.72t-2.48-0.6l-3.12,0q-3.16,0-4.72-1.18t-1.56-2.98q0-1.12,0.66-2.18t1.82-1.78q-1.96-1.08-2.86-2.54t-0.9-3.5q0-2.32,1.14-4.06t3.2-2.68t4.7-0.94q3.28,0.08,5.4-0.56t4.52-2z M84.14,30.98q-0.94,1.02-0.94,2.78q0,1.8,0.94,2.84t2.58,1.04q1.72,0,2.6-1t0.88-2.96q0-3.72-3.52-3.72q-1.6,0-2.54,1.02z M117.04,29.14q2.68,2.98,2.68,8.26q0,3.36-1.22,5.9t-3.52,3.94t-5.42,1.4q-4.76,0-7.46-2.98t-2.7-8.26q0-3.36,1.22-5.9t3.52-3.94t5.46-1.4q4.76,0,7.44,2.98z M106.38,32.1q-1.06,1.7-1.06,5.3t1.06,5.3t3.18,1.7t3.18-1.7t1.06-5.3t-1.04-5.3t-3.16-1.7q-2.16,0-3.22,1.7z M141.78,23.26q3.9,2.94,3.9,10.78q0,7.68-3.82,10.82t-9.78,3.14l-7.92,0l0-27.68l7.24,0q6.48,0,10.38,2.94z M130.04,24.64l0,19.04l2.4,0q3.4,0,5.26-2.1t1.86-7.54q0-3.76-0.94-5.84t-2.5-2.82t-3.8-0.74l-2.28,0z M167.84,39.12l-13.24,0q0.28,2.88,1.56,4.08t3.48,1.2q1.36,0,2.56-0.44t2.6-1.4l2.36,3.2q-3.56,2.88-8.04,2.88q-5,0-7.68-3t-2.68-8.12q0-3.24,1.14-5.82t3.32-4.06t5.18-1.48q4.52,0,7.04,2.84t2.52,7.92q0,0.4-0.12,2.2z M162.32,35.32q0-5.28-3.8-5.28q-1.76,0-2.74,1.3t-1.18,4.22l7.72,0l0-0.24z M186.8,28.72l-2.16,3.24q-2.68-1.68-5.28-1.68q-1.4,0-2.16,0.52t-0.76,1.4q0,0.64,0.34,1.08t1.28,0.84t2.82,0.96q3.36,0.92,5,2.46t1.64,4.22q0,2.12-1.22,3.68t-3.3,2.38t-4.64,0.82q-2.68,0-4.88-0.82t-3.76-2.26l2.8-3.12q2.68,2.08,5.68,2.08q1.6,0,2.54-0.62t0.94-1.7q0-0.84-0.36-1.32t-1.32-0.9t-3-0.98q-3.2-0.88-4.74-2.5t-1.54-4.02q0-1.8,1.04-3.24t2.94-2.26t4.42-0.82q4.48,0,7.68,2.56z M196.92,26.8l0,21.2l-5.68,0l0-21.2l5.68,0z M196.54,16.82q0.98,0.94,0.98,2.38t-0.98,2.38t-2.5,0.94t-2.48-0.94t-0.96-2.38t0.96-2.38t2.48-0.94t2.5,0.94z M221.48,27.96q-2.08,0.8-6.12,0.8q2,0.88,2.96,2.18t0.96,3.26q0,2.04-1.06,3.66t-3.04,2.54t-4.62,0.92q-1.4,0-2.48-0.28q-0.8,0.52-0.8,1.4q0,0.64,0.5,1.02t1.94,0.38l3.24,0q2.36,0,4.14,0.78t2.76,2.16t0.98,3.14q0,3.24-2.78,5.06t-8.02,1.82q-3.76,0-5.94-0.78t-3.06-2.26t-0.88-3.72l5.08,0q0,1.04,0.4,1.66t1.46,0.92t3.06,0.3q2.76,0,3.86-0.68t1.1-1.92q0-1.12-0.84-1.72t-2.48-0.6l-3.12,0q-3.16,0-4.72-1.18t-1.56-2.98q0-1.12,0.66-2.18t1.82-1.78q-1.96-1.08-2.86-2.54t-0.9-3.5q0-2.32,1.14-4.06t3.2-2.68t4.7-0.94q3.28,0.08,5.4-0.56t4.52-2z M207.74,30.98q-0.94,1.02-0.94,2.78q0,1.8,0.94,2.84t2.58,1.04q1.72,0,2.6-1t0.88-2.96q0-3.72-3.52-3.72q-1.6,0-2.54,1.02z M240.48,27.86q1.56,1.7,1.56,4.7l0,15.44l-5.68,0l0-14.48q0-1.72-0.58-2.42t-1.74-0.7q-1.2,0-2.18,0.74t-1.9,2.22l0,14.64l-5.68,0l0-21.2l4.92,0l0.44,2.68q1.32-1.64,2.9-2.48t3.58-0.84q2.8,0,4.36,1.7z M251.84,42.8q1,1,1,2.4t-1,2.42t-2.44,1.02q-1.4,0-2.4-1.02t-1-2.42t1-2.4t2.4-1q1.44,0,2.44,1z M271.8,48l-1.56-6.2l-8.68,0l-1.56,6.2l-6.12,0l8.52-27.68l7.16,0l8.48,27.68l-6.24,0z M262.68,37.44l6.44,0l-3.24-12.76z M286.48,20.32l0,27.68l-5.88,0l0-27.68l5.88,0z"/></g><g data-name="business_name" fill="#FFFFFF" data="id:168" transform="translate(128.1070794745946,128.3716997739419) scale(2.2189172446512244)"><path d="M29.96,14.16l-2.8,3.28q-1.64-1.68-3.92-2.64t-4.8-0.96q-3.28,0-5.98,1.48t-4.22,4.04q-1.56,2.68-1.56,5.96q0,3.12,1.68,5.76q1.6,2.48,4.3,3.94t5.82,1.46q2.88,0,5.36-1.24t4.12-3.44l2.68,3.64q-2.28,2.56-5.46,3.98t-6.74,1.42q-4.44,0-8.16-2.16q-3.64-2.08-5.72-5.72q-2.16-3.72-2.16-8.16q0-4.28,2.28-7.88q2.16-3.44,5.86-5.46t7.94-2.02q3.32,0,6.32,1.28q2.92,1.2,5.16,3.44z M41.36,14.72l0,9.12q1.24-0.72,2.8-1q1.16-0.2,2.88-0.2l5.12,0q2.08,0,3.26-1.04t1.18-3.08q0-3.8-4.44-3.8l-10.8,0z M41.36,28.28l0,7.52l11.24,0q1.32,0,2.52-0.48q1.32-0.48,2.08-1.4q0.88-1.08,0.88-2.48q0-2.4-1.88-3.48q-1.48-0.88-4.04-0.88l-5.12,0q-3.44,0-5.68,1.2z M62.4,32q0,2.8-1.56,4.76q-1.36,1.72-3.84,2.6q-2.2,0.8-4.84,0.8l-15.12,0l0-29.84l15.12,0q2.56,0,4.54,0.96t3.1,2.76q1.16,1.88,1.16,4.44q0,1.96-0.7,3.5t-1.98,2.38q1.72,0.8,2.84,2.64q1.28,2.12,1.28,5z"/></g><g data-name="slogan" fill="#FFFFFF" data="id:169" transform="translate(132.09306521312536,232.2343028634049) scale(0.38051627078165046)"><path d="M21.32,19.68l0,3.12l-14.44,0l0,8.88l13.48,0l0,3.12l-13.48,0l0,10.08l15.16,0l0,3.12l-18.52,0l0-28.32l17.8,0z M35.88,28.8q3.52,0,5.32,2.04t1.8,5.44l0,11.72l-3.12,0l0-11.36q0-2.16-1-3.54t-3.28-1.42q-2.88,0-4.34,1.9t-1.46,5.26l0,9.16l-3.12,0l0-14.56q0-0.2-0.16-4.16l2.96,0q0.08,2.8,0.08,3.08l0.08,0q0.76-1.6,2.46-2.58t3.78-0.98z M67.6,17.76l0,30.24l-3.12,0l0-3.32l-0.08,0q-0.96,1.8-2.92,2.8t-4.28,1q-3.96,0-6.62-2.82t-2.74-7.02q0-4.28,2.74-7.04t7.1-2.8q4.04,0,6.72,3.2l0.08,0l0-14.24l3.12,0z M51.2,38.64q0,3.08,1.86,5t4.78,1.96q2.92,0,4.74-1.92t1.9-5.04q0-3.04-1.86-5t-4.82-1.96q-2.88,0-4.7,1.94t-1.9,5.02z M76.76,17.76l0,30.24l-3.12,0l0-30.24l3.12,0z M91.48,28.8q4.16,0,6.5,2.62t2.38,7.42l0,0.76l-15.12,0q0.24,2.6,1.96,4.28t4.2,1.72q3.8,0,5.92-2.84l2.36,1.84q-1.48,1.92-3.48,2.9t-4.8,0.98q-4.28,0-6.88-2.78t-2.64-7.06q0-4.24,2.66-7t6.94-2.84z M97,36.96q-0.12-2.44-1.58-3.86t-4.1-1.42q-2.4,0-4.04,1.36t-2.04,3.92l11.76,0z M110.92,28.8q4.48,0.04,6.36,3.4l-2.6,1.72q-1.36-2.24-3.96-2.24q-1.56,0-2.62,0.72t-1.06,1.88q0,1.88,4.68,2.72q3.36,0.6,4.76,1.96t1.4,3.64q0,2.76-2.04,4.32t-5.44,1.56q-2.64,0-4.34-0.84t-2.94-2.64l2.48-1.92q1.16,1.4,2.28,1.96t2.52,0.56q1.8,0,2.96-0.78t1.16-2.1q0-1.36-1.22-2.04t-4.06-1.24q-2.8-0.6-4.06-1.8t-1.26-3.32q0-2.36,1.94-3.92t5.06-1.6z M127.96,28.8q4.48,0.04,6.36,3.4l-2.6,1.72q-1.36-2.24-3.96-2.24q-1.56,0-2.62,0.72t-1.06,1.88q0,1.88,4.68,2.72q3.36,0.6,4.76,1.96t1.4,3.64q0,2.76-2.04,4.32t-5.44,1.56q-2.64,0-4.34-0.84t-2.94-2.64l2.48-1.92q1.16,1.4,2.28,1.96t2.52,0.56q1.8,0,2.96-0.78t1.16-2.1q0-1.36-1.22-2.04t-4.06-1.24q-2.8-0.6-4.06-1.8t-1.26-3.32q0-2.36,1.94-3.92t5.06-1.6z  M159.56,19.68q4.56,0,7.1,1.96t2.62,5.8q0,3.72-2.48,5.74t-6.64,2.1l-5.84,0l0,12.72l-3.36,0l0-28.32l8.6,0z M160.16,32.16q2.56,0,4.04-1.24t1.48-3.44t-1.46-3.44t-4.06-1.24l-5.84,0l0,9.36l5.84,0z M183.04,28.8q4.36,0,7.12,2.7t2.88,7.14q0,4.28-2.8,7.02t-7.2,2.82q-4.4,0-7.16-2.78t-2.84-7.06q0-4.32,2.8-7.06t7.2-2.78z M176.4,38.64q0,3.08,1.86,4.98t4.78,1.98q2.92,0,4.76-1.94t1.88-5.02q0-3.04-1.86-5t-4.82-1.96q-2.88,0-4.72,1.94t-1.88,5.02z M203.6,28.8q4.48,0.04,6.36,3.4l-2.6,1.72q-1.36-2.24-3.96-2.24q-1.56,0-2.62,0.72t-1.06,1.88q0,1.88,4.68,2.72q3.36,0.6,4.76,1.96t1.4,3.64q0,2.76-2.04,4.32t-5.44,1.56q-2.64,0-4.34-0.84t-2.94-2.64l2.48-1.92q1.16,1.4,2.28,1.96t2.52,0.56q1.8,0,2.96-0.78t1.16-2.1q0-1.36-1.22-2.04t-4.06-1.24q-2.8-0.6-4.06-1.8t-1.26-3.32q0-2.36,1.94-3.92t5.06-1.6z M220.64,28.8q4.48,0.04,6.36,3.4l-2.6,1.72q-1.36-2.24-3.96-2.24q-1.56,0-2.62,0.72t-1.06,1.88q0,1.88,4.68,2.72q3.36,0.6,4.76,1.96t1.4,3.64q0,2.76-2.04,4.32t-5.44,1.56q-2.64,0-4.34-0.84t-2.94-2.64l2.48-1.92q1.16,1.4,2.28,1.96t2.52,0.56q1.8,0,2.96-0.78t1.16-2.1q0-1.36-1.22-2.04t-4.06-1.24q-2.8-0.6-4.06-1.8t-1.26-3.32q0-2.36,1.94-3.92t5.06-1.6z M233.8,19.68q0.92,0,1.6,0.66t0.68,1.62q0,1-0.64,1.64t-1.64,0.64t-1.64-0.64t-0.64-1.64q0-0.96,0.68-1.62t1.6-0.66z M235.36,29.28l0,18.72l-3.12,0l0-18.72l3.12,0z M244.52,17.76l0,14.24l0.08,0q2.72-3.16,6.72-3.2q4.44,0,7.12,2.78t2.72,7.06q0,4.16-2.68,6.96t-6.68,2.88q-2.4,0-4.34-1.04t-2.86-2.76l-0.08,0l0,3.32l-3.12,0l0-30.24l3.12,0z M244.52,38.64q0,3.08,1.9,5.02t4.74,1.94q2.92,0,4.76-1.94t1.88-5.02q0-3.04-1.86-5t-4.82-1.96q-2.88,0-4.72,1.94t-1.88,5.02z M267.84,19.68q0.92,0,1.6,0.66t0.68,1.62q0,1-0.64,1.64t-1.64,0.64t-1.64-0.64t-0.64-1.64q0-0.96,0.68-1.62t1.6-0.66z M269.4,29.28l0,18.72l-3.12,0l0-18.72l3.12,0z M279,17.76l0,30.24l-3.12,0l0-30.24l3.12,0z M287.04,19.68q0.92,0,1.6,0.66t0.68,1.62q0,1-0.64,1.64t-1.64,0.64t-1.64-0.64t-0.64-1.64q0-0.96,0.68-1.62t1.6-0.66z M288.6,29.28l0,18.72l-3.12,0l0-18.72l3.12,0z M299.52,23.96l0,5.32l5.52,0l0,2.64l-5.52,0l0,10q0,2.24,0.72,2.96t2.08,0.72q1.56,0,2.76-0.64l0.12,2.84q-1.6,0.68-3.64,0.68q-2.88,0-4.02-1.42t-1.14-4.66l0-10.48l-4.08,0l0-2.64l4.08,0l0-5.32l3.12,0z M310.72,19.68q0.92,0,1.6,0.66t0.68,1.62q0,1-0.64,1.64t-1.64,0.64t-1.64-0.64t-0.64-1.64q0-0.96,0.68-1.62t1.6-0.66z M312.28,29.28l0,18.72l-3.12,0l0-18.72l3.12,0z M327,28.8q4.16,0,6.5,2.62t2.38,7.42l0,0.76l-15.12,0q0.24,2.6,1.96,4.28t4.2,1.72q3.8,0,5.92-2.84l2.36,1.84q-1.48,1.92-3.48,2.9t-4.8,0.98q-4.28,0-6.88-2.78t-2.64-7.06q0-4.24,2.66-7t6.94-2.84z M332.52,36.96q-0.12-2.44-1.58-3.86t-4.1-1.42q-2.4,0-4.04,1.36t-2.04,3.92l11.76,0z M346.44,28.8q4.48,0.04,6.36,3.4l-2.6,1.72q-1.36-2.24-3.96-2.24q-1.56,0-2.62,0.72t-1.06,1.88q0,1.88,4.68,2.72q3.36,0.6,4.76,1.96t1.4,3.64q0,2.76-2.04,4.32t-5.44,1.56q-2.64,0-4.34-0.84t-2.94-2.64l2.48-1.92q1.16,1.4,2.28,1.96t2.52,0.56q1.8,0,2.96-0.78t1.16-2.1q0-1.36-1.22-2.04t-4.06-1.24q-2.8-0.6-4.06-1.8t-1.26-3.32q0-2.36,1.94-3.92t5.06-1.6z"/></g></svg>